<svg width="16" height="16" viewBox="0 0 16 16" fill="none" xmlns="http://www.w3.org/2000/svg">
<g id="logo-02-light" clip-path="url(#clip0_329_43)">
<path id="Ellipse 5" d="M8 0C4.13401 0 1 2.33333 1 6.66667C1 11 7 16 8 16C9 16 15 11 15 6.66667C15 2.33333 11.866 0 8 0Z" fill="#AD290B"/>
<path id="circle" d="M8 1.09998C11.0185 1.09998 13.5 3.6549 13.5 6.84998C13.5 9.97838 10.8516 12.1 8 12.1C5.14837 12.1 2.5 9.97838 2.5 6.84998C2.5 3.6549 4.98147 1.09998 8 1.09998Z" stroke="white"/>
<g id="wheat">
<path id="Vector" d="M11.1706 5.99338C11.5356 6.35759 11.7495 6.87326 11.7251 7.44921C11.7007 8.02414 11.4427 8.55062 11.046 8.93226C10.9587 9.01706 10.8231 9.02016 10.7428 8.93921C10.3778 8.575 10.1639 8.05932 10.1883 7.48439C10.2127 6.90843 10.4717 6.38297 10.8673 6.00135C10.9547 5.91553 11.0903 5.91243 11.1706 5.99338Z" fill="white" stroke="#AD290B" stroke-width="0.2"/>
<path id="Vector_2" d="M9.02893 8.62827C9.60113 8.61517 10.1097 8.8394 10.4647 9.21198C10.5436 9.29397 10.5379 9.42963 10.4518 9.51539C10.0635 9.90499 9.53593 10.153 8.96373 10.166C8.3905 10.1792 7.88296 9.95491 7.52694 9.58235C7.44807 9.49932 7.45377 9.3647 7.53981 9.27894C7.92917 8.8893 8.45674 8.64136 9.02893 8.62827Z" fill="white" stroke="#AD290B" stroke-width="0.2"/>
<path id="Vector_3" d="M9.75851 4.5516C10.1236 4.91429 10.3376 5.42783 10.3132 6.00143C10.289 6.57402 10.031 7.09836 9.63442 7.47849C9.54709 7.56294 9.41153 7.56605 9.3312 7.48543C8.96611 7.12274 8.75216 6.6092 8.77644 6.03661C8.80076 5.46299 9.05969 4.93966 9.45525 4.55956C9.54263 4.47409 9.67819 4.47099 9.75851 4.5516Z" fill="white" stroke="#AD290B" stroke-width="0.2"/>
<path id="Vector_4" d="M6.11613 7.8252C6.50458 7.4356 7.0323 7.18764 7.60466 7.17454C8.17703 7.16144 8.68575 7.38567 9.04086 7.75825C9.11981 7.84024 9.11406 7.97589 9.028 8.06166C8.63954 8.45126 8.11183 8.69922 7.53946 8.71232C6.96607 8.72545 6.45837 8.50119 6.10224 8.12863C6.02432 8.04662 6.03002 7.912 6.11613 7.8252Z" fill="white" stroke="#AD290B" stroke-width="0.2"/>
<path id="Vector_5" d="M8.03096 3.10519C8.11831 3.0204 8.25387 3.01729 8.33418 3.09824C8.69921 3.46244 8.91308 3.97809 8.88866 4.55402C8.86428 5.12893 8.60624 5.65537 8.20958 6.037C8.12224 6.12179 7.98668 6.1249 7.90636 6.04394C7.54134 5.67975 7.32748 5.16411 7.35185 4.5892C7.37632 4.01222 7.63432 3.48682 8.03096 3.10519Z" fill="white" stroke="#AD290B" stroke-width="0.2"/>
<path id="Vector_6" d="M6.193 5.73312C6.7652 5.72003 7.27377 5.94426 7.62877 6.31684C7.70769 6.39883 7.70194 6.53448 7.61591 6.62025C7.22755 7.00985 6.7 7.25781 6.1278 7.27091C5.55457 7.28403 5.04702 7.05976 4.69101 6.68721C4.61213 6.60418 4.61784 6.46956 4.70387 6.38379C5.09216 5.99522 5.61977 5.74625 6.193 5.73312Z" fill="white" stroke="#AD290B" stroke-width="0.2"/>
<path id="Vector_7" d="M6.6151 1.65116C6.70177 1.56638 6.83623 1.56331 6.91586 1.64427C7.27779 2.00854 7.48974 2.52423 7.46532 3.10016C7.44094 3.67507 7.18482 4.20147 6.79126 4.58303C6.7046 4.6678 6.57014 4.67088 6.4905 4.58992C6.12857 4.22565 5.91663 3.70997 5.94101 3.13506C5.96543 2.55913 6.22258 2.03269 6.6151 1.65116Z" fill="white" stroke="#AD290B" stroke-width="0.2"/>
<path id="Vector_8" d="M4.76966 4.27927C5.34186 4.26617 5.85043 4.4904 6.20543 4.86298C6.28435 4.94498 6.2786 5.08063 6.19257 5.16639C5.80421 5.556 5.27666 5.80395 4.70446 5.81705C4.13123 5.83017 3.62368 5.60592 3.26767 5.23335C3.18879 5.15033 3.1945 5.01571 3.28053 4.92994C3.66882 4.54136 4.19638 4.29341 4.76966 4.27927Z" fill="white" stroke="#AD290B" stroke-width="0.2"/>
<path id="Vector_9" d="M5.0534 2.26242C5.44218 2.65939 5.61896 3.18824 5.59117 3.7218C5.58514 3.83966 5.48606 3.93695 5.36826 3.94067C4.83599 3.95802 4.31033 3.77073 3.92154 3.37375C3.53275 2.97678 3.35602 2.44688 3.38376 1.91438C3.3898 1.7965 3.48886 1.69922 3.60668 1.69549C4.13895 1.67814 4.66461 1.86543 5.0534 2.26242Z" fill="white" stroke="#AD290B" stroke-width="0.2"/>
<path id="Vector_10" d="M12.7107 11.351C12.5846 11.4747 12.3882 11.4792 12.2725 11.361L10.9097 9.96951C10.7939 9.85128 10.8022 9.65478 10.9283 9.53101L11.0651 9.39667C11.1911 9.2729 11.3875 9.2684 11.5033 9.38663L12.8661 10.7771C12.9819 10.8953 12.9736 11.0918 12.8475 11.2156L12.7107 11.351Z" fill="white" stroke="#AD290B" stroke-width="0.2"/>
</g>
</g>
<defs>
<clipPath id="clip0_329_43">
<rect width="16" height="16" fill="white"/>
</clipPath>
</defs>
</svg>
