<svg width="574" height="800" viewBox="0 0 574 800" fill="none" xmlns="http://www.w3.org/2000/svg">
<g id="logo" clip-path="url(#clip0_322_2)">
<path id="mapFill" d="M497.4 617.753H383.777L287 721.588C287 721.588 242.41 680.589 190.485 617.753H76.6018L23.7471 776.213H550.25L497.4 617.753Z" fill="white"/>
<path id="borderBottom" d="M572.817 768.689L519.963 610.23C516.724 600.519 507.635 593.97 497.4 593.97H383.777C377.178 593.97 370.875 596.711 366.378 601.539L286.158 687.608C230.253 631.7 55.2346 443.534 55.2346 279.341C55.2346 243.014 63.3956 208.242 79.4862 175.997C85.3534 164.245 80.5799 149.959 68.8284 144.094C57.0659 138.228 42.7877 143.002 36.9252 154.755C17.5096 193.655 7.6643 235.575 7.6643 279.342C7.6643 390.223 74.6174 506.2 141.035 593.972H76.6034C66.3659 593.972 57.2799 600.52 54.0409 610.231L1.18462 768.689C-1.23413 775.941 -0.0185146 783.916 4.45024 790.12C8.92211 796.323 16.1002 800 23.7471 800H550.253C557.9 800 565.078 796.325 569.55 790.12C574.021 783.917 575.235 775.941 572.817 768.689ZM56.7534 752.43L93.7424 641.541H179.072C226.724 698.109 266.763 735.292 270.905 739.1C271.489 739.638 272.097 740.138 272.717 740.606C272.944 740.778 273.183 740.922 273.414 741.081C273.816 741.363 274.216 741.647 274.632 741.9C274.927 742.081 275.228 742.233 275.528 742.397C275.894 742.599 276.257 742.808 276.632 742.989C276.963 743.148 277.297 743.284 277.633 743.427C277.989 743.578 278.344 743.738 278.706 743.874C279.056 744.005 279.411 744.109 279.764 744.224C280.124 744.338 280.48 744.456 280.842 744.555C281.202 744.65 281.561 744.727 281.922 744.805C282.291 744.886 282.655 744.966 283.025 745.028C283.385 745.091 283.746 745.133 284.108 745.175C284.485 745.22 284.86 745.266 285.238 745.294C285.597 745.32 285.953 745.331 286.313 745.344C286.544 745.352 286.772 745.375 287.002 745.375C287.156 745.375 287.311 745.356 287.466 745.353C287.817 745.345 288.167 745.327 288.519 745.306C288.906 745.283 289.294 745.25 289.681 745.206C290.031 745.166 290.377 745.119 290.724 745.064C291.11 745.002 291.492 744.933 291.872 744.853C292.219 744.781 292.564 744.703 292.906 744.616C293.28 744.52 293.649 744.414 294.017 744.3C294.364 744.192 294.71 744.081 295.052 743.959C295.407 743.831 295.756 743.691 296.105 743.545C296.452 743.403 296.797 743.255 297.139 743.095C297.472 742.939 297.799 742.767 298.124 742.594C298.469 742.411 298.813 742.228 299.149 742.028C299.46 741.842 299.764 741.638 300.069 741.439C300.402 741.22 300.735 741.002 301.061 740.764C301.366 740.541 301.661 740.295 301.955 740.055C302.257 739.809 302.561 739.569 302.853 739.308C302.917 739.252 302.989 739.2 303.053 739.141C304.771 737.569 345.522 700.116 394.902 641.545H480.255L517.244 752.434H56.7534V752.43Z" fill="black"/>
<path id="borderTop" d="M149.955 92.4078C189.891 63.0766 237.283 47.5703 287 47.5703C414.795 47.5703 518.767 151.541 518.767 279.337C518.767 349.059 487.692 430.525 426.402 521.483C419.061 532.377 421.942 547.156 432.836 554.498C436.912 557.245 441.531 558.561 446.106 558.561C453.752 558.561 461.259 554.881 465.853 548.064C532.53 449.112 566.339 358.702 566.339 279.337C566.339 125.312 441.028 0 287 0C227.08 0 169.952 18.6953 121.792 54.0687C111.205 61.8437 108.927 76.7312 116.702 87.3187C124.484 97.9062 139.37 100.183 149.955 92.4078Z" fill="black"/>
<path id="circle" d="M282.835 100.434C381.491 100.434 461.835 184.033 461.835 287.622C461.835 390.542 374.951 459.434 282.835 459.434C190.719 459.434 103.835 390.542 103.835 287.622C103.835 184.033 184.179 100.434 282.835 100.434Z" stroke="white" stroke-width="10"/>
<path id="middle-bar" d="M413.394 413.394L174 174" stroke="white" stroke-width="25" stroke-linejoin="round"/>
<g id="wheat">
<path id="Vector" d="M375.934 262.837C387.169 274.046 393.751 289.917 392.999 307.644C392.249 325.339 384.307 341.543 372.099 353.289C369.411 355.899 365.239 355.994 362.767 353.502C351.532 342.293 344.95 326.422 345.7 308.727C346.452 291 354.424 274.828 366.6 263.082C369.29 260.441 373.462 260.345 375.934 262.837Z" fill="white"/>
<path id="Vector_2" d="M310.018 343.933C327.629 343.529 343.282 350.431 354.208 361.898C356.637 364.421 356.46 368.597 353.812 371.236C341.859 383.227 325.622 390.859 308.011 391.262C290.369 391.666 274.748 384.763 263.79 373.297C261.363 370.742 261.538 366.598 264.186 363.959C276.17 351.967 292.407 344.336 310.018 343.933Z" fill="white"/>
<path id="Vector_3" d="M332.473 218.462C343.71 229.625 350.295 245.43 349.547 263.085C348.799 280.707 340.86 296.846 328.654 308.545C325.966 311.144 321.794 311.24 319.322 308.759C308.085 297.596 301.5 281.79 302.247 264.167C302.996 246.513 310.965 230.406 323.14 218.707C325.829 216.077 330.001 215.981 332.473 218.462Z" fill="white"/>
<path id="Vector_4" d="M220.369 319.216C232.325 307.225 248.566 299.593 266.183 299.19C283.799 298.787 299.456 305.688 310.385 317.155C312.815 319.679 312.638 323.854 309.989 326.494C298.034 338.484 281.792 346.116 264.176 346.52C246.528 346.923 230.902 340.021 219.942 328.555C217.543 326.031 217.719 321.887 220.369 319.216Z" fill="white"/>
<path id="Vector_5" d="M279.304 173.945C281.992 171.335 286.164 171.24 288.636 173.731C299.871 184.94 306.453 200.811 305.701 218.537C304.951 236.231 297.009 252.434 284.801 264.179C282.113 266.789 277.941 266.885 275.469 264.393C264.234 253.184 257.652 237.314 258.402 219.619C259.155 201.861 267.096 185.691 279.304 173.945Z" fill="white"/>
<path id="Vector_6" d="M222.735 254.827C240.346 254.424 255.999 261.325 266.925 272.792C269.354 275.316 269.177 279.491 266.529 282.13C254.577 294.121 238.34 301.753 220.729 302.156C203.086 302.56 187.465 295.658 176.508 284.191C174.08 281.636 174.255 277.493 176.903 274.853C188.854 262.894 205.093 255.231 222.735 254.827Z" fill="white"/>
<path id="Vector_7" d="M235.726 129.193C238.393 126.584 242.531 126.489 244.982 128.981C256.122 140.193 262.645 156.065 261.893 173.79C261.143 191.485 253.26 207.686 241.147 219.43C238.48 222.039 234.342 222.133 231.891 219.641C220.752 208.43 214.228 192.559 214.979 174.864C215.73 157.138 223.645 140.936 235.726 129.193Z" fill="white"/>
<path id="Vector_8" d="M178.927 210.081C196.538 209.677 212.191 216.579 223.117 228.046C225.546 230.57 225.369 234.745 222.721 237.384C210.768 249.375 194.532 257.007 176.921 257.41C159.278 257.814 143.657 250.912 132.699 239.445C130.272 236.89 130.447 232.747 133.095 230.107C145.046 218.147 161.283 210.516 178.927 210.081Z" fill="white"/>
<path id="Vector_9" d="M183.661 148.007C195.627 160.225 201.068 176.501 200.213 192.923C200.027 196.55 196.978 199.545 193.352 199.659C176.97 200.193 160.791 194.429 148.825 182.211C136.859 169.993 131.42 153.684 132.274 137.295C132.459 133.667 135.508 130.673 139.135 130.558C155.517 130.024 171.695 135.788 183.661 148.007Z" fill="white"/>
<path id="Vector_10" d="M422.788 427.413C419.006 431.266 413.048 431.474 409.492 427.877L367.645 385.546C364.089 381.949 364.273 375.9 368.054 372.047L372.16 367.864C375.941 364.011 381.899 363.803 385.455 367.4L427.304 409.7C430.859 413.297 430.676 419.346 426.894 423.199L422.788 427.413Z" fill="white"/>
</g>
</g>
<defs>
<clipPath id="clip0_322_2">
<rect width="574" height="800" fill="white"/>
</clipPath>
</defs>
</svg>
