<svg width="992" height="780" viewBox="0 0 992 780" fill="none" xmlns="http://www.w3.org/2000/svg">
<g id="menuIcon">
<g id="wheat">
<path id="Vector" d="M583.053 266.555C609.853 266.527 636.664 276.943 656.934 297.665C677.168 318.35 687.033 345.427 686.481 372.289C686.387 378.231 681.52 383.017 675.592 382.995C648.792 383.023 621.981 372.606 601.747 351.921C581.477 331.199 571.686 304.123 572.2 277.297C572.258 271.319 577.125 266.533 583.053 266.555Z" fill="black"/>
<path id="Vector_2" d="M601.197 431.403C621.745 411.202 648.677 401.388 675.416 401.995C681.33 402.101 686.104 406.981 686.095 412.911C686.14 439.762 675.864 466.528 655.317 486.729C634.732 506.967 607.837 516.744 581.061 516.173C575.111 516.03 570.373 511.187 570.383 505.257C570.373 478.371 580.649 451.604 601.197 431.403Z" fill="black"/>
<path id="Vector_3" d="M478.18 265.52C504.927 265.437 531.664 275.777 551.851 296.414C572.002 317.014 581.792 344.015 581.187 370.823C581.081 376.752 576.214 381.537 570.298 381.528C543.551 381.611 516.815 371.27 496.664 350.67C476.476 330.032 466.759 303.033 467.328 276.261C467.397 270.296 472.265 265.51 478.18 265.52Z" fill="black"/>
<path id="Vector_4" d="M464.636 504.217C464.594 477.363 474.876 450.591 495.43 430.384C515.983 410.177 542.921 400.357 569.664 400.96C575.579 401.065 580.353 405.946 580.342 411.877C580.384 438.731 570.103 465.503 549.549 485.71C528.958 505.953 502.058 515.736 475.278 515.169C469.4 515.028 464.662 510.185 464.636 504.217Z" fill="black"/>
<path id="Vector_5" d="M361.553 275.203C361.647 269.262 366.515 264.476 372.442 264.498C399.242 264.469 426.052 274.885 446.321 295.606C466.554 316.29 476.418 343.366 475.866 370.228C475.772 376.169 470.905 380.955 464.978 380.933C438.178 380.962 411.367 370.546 391.135 349.862C370.829 329.104 361.001 302.065 361.553 275.203Z" fill="black"/>
<path id="Vector_6" d="M390.583 429.341C411.13 409.14 438.062 399.326 464.801 399.933C470.715 400.039 475.489 404.92 475.48 410.849C475.525 437.7 465.25 464.466 444.702 484.668C424.117 504.905 397.222 514.683 370.446 514.112C364.496 513.969 359.758 509.125 359.768 503.196C359.757 476.383 369.997 449.579 390.583 429.341Z" fill="black"/>
<path id="Vector_7" d="M256.07 273.904C256.139 267.987 260.968 263.24 266.87 263.286C293.559 263.366 320.301 273.85 340.569 294.571C360.802 315.255 370.735 342.263 370.294 369.016C370.225 374.933 365.397 379.68 359.494 379.634C332.805 379.553 306.064 369.07 285.831 348.386C265.562 327.665 255.666 300.62 256.07 273.904Z" fill="black"/>
<path id="Vector_8" d="M284.831 428.306C305.378 408.105 332.31 398.291 359.05 398.898C364.964 399.004 369.737 403.885 369.728 409.814C369.774 436.665 359.498 463.431 338.95 483.632C318.365 503.87 291.47 513.648 264.694 513.077C258.744 512.934 254.006 508.09 254.016 502.16C254.005 475.347 264.282 448.581 284.831 428.306Z" fill="black"/>
<path id="Vector_9" d="M221.151 348.892C250.029 349.174 275.962 361.326 294.55 380.7C298.66 384.976 298.594 391.754 294.401 395.948C275.477 414.918 249.275 426.596 220.397 426.314C191.519 426.032 165.55 413.842 146.998 394.506C142.888 390.229 142.954 383.452 147.147 379.257C166.071 360.287 192.273 348.609 221.151 348.892Z" fill="black"/>
<path id="Vector_10" d="M836.568 398.31C836.484 406.933 829.432 413.865 820.831 413.781L719.608 412.791C711.007 412.707 704.092 405.637 704.176 397.015L704.267 387.655C704.351 379.033 711.402 372.1 720.003 372.184L821.19 373.138C829.791 373.222 836.706 380.292 836.622 388.914L836.568 398.31Z" fill="black"/>
</g>
<path id="cross" d="M219.446 287.253L209.736 305.186C204.979 313.952 202.754 323.869 203.311 333.828C203.868 343.786 207.184 353.393 212.889 361.575C221.163 377.749 238.123 385.407 238.123 385.407C314.77 428.789 538.123 371.889 753.218 397.68C753.218 397.68 765.543 397.595 779.554 417.688C785.259 425.869 788.575 435.476 789.132 445.435C789.689 455.393 787.465 465.31 782.708 474.077L772.997 492.009" stroke="black" stroke-width="40" stroke-linecap="round" stroke-linejoin="round"/>
<path id="down" d="M196 573H795.987" stroke="black" stroke-width="50" stroke-linecap="round" stroke-linejoin="round"/>
<path id="middle" d="M196 394.9H795.987" stroke="black" stroke-width="50" stroke-linecap="round" stroke-linejoin="round"/>
<path id="up" d="M196 213H796" stroke="black" stroke-width="50" stroke-linecap="round" stroke-linejoin="round"/>
</g>
</svg>
