<svg width="574" height="800" viewBox="0 0 574 800" fill="none" xmlns="http://www.w3.org/2000/svg">
<g id="logo" clip-path="url(#clip0_322_2)">
<path id="innerCircle" d="M286.995 433.675C371.723 433.675 440.409 364.989 440.409 280.261C440.409 195.533 371.723 126.847 286.995 126.847C202.267 126.847 133.581 195.533 133.581 280.261C133.581 364.989 202.267 433.675 286.995 433.675Z" fill="black"/>
<path id="innerBorder" d="M287 457.461C189.295 457.461 109.808 377.973 109.808 280.269C109.808 182.564 189.295 103.073 287 103.073C384.704 103.073 464.192 182.561 464.192 280.269C464.194 377.972 384.704 457.461 287 457.461ZM287 150.644C215.525 150.644 157.378 208.794 157.378 280.269C157.378 351.744 215.526 409.891 287 409.891C358.475 409.891 416.622 351.744 416.622 280.269C416.622 208.794 358.475 150.644 287 150.644Z" fill="white"/>
<path id="mapFill" d="M497.4 617.753H383.777L287 721.588C287 721.588 242.41 680.589 190.485 617.753H76.6018L23.7471 776.213H550.25L497.4 617.753Z" fill="white"/>
<path id="borderBottom" d="M572.817 768.689L519.963 610.23C516.724 600.519 507.635 593.97 497.4 593.97H383.777C377.178 593.97 370.875 596.711 366.378 601.539L286.158 687.608C230.253 631.7 55.2346 443.534 55.2346 279.341C55.2346 243.014 63.3956 208.242 79.4862 175.997C85.3534 164.245 80.5799 149.959 68.8284 144.094C57.0659 138.228 42.7877 143.002 36.9252 154.755C17.5096 193.655 7.6643 235.575 7.6643 279.342C7.6643 390.223 74.6174 506.2 141.035 593.972H76.6034C66.3659 593.972 57.2799 600.52 54.0409 610.231L1.18462 768.689C-1.23413 775.941 -0.0185146 783.916 4.45024 790.12C8.92211 796.323 16.1002 800 23.7471 800H550.253C557.9 800 565.078 796.325 569.55 790.12C574.021 783.917 575.235 775.941 572.817 768.689ZM56.7534 752.43L93.7424 641.541H179.072C226.724 698.109 266.763 735.292 270.905 739.1C271.489 739.638 272.097 740.138 272.717 740.606C272.944 740.778 273.183 740.922 273.414 741.081C273.816 741.363 274.216 741.647 274.631 741.9C274.927 742.081 275.228 742.233 275.528 742.397C275.894 742.598 276.256 742.808 276.631 742.989C276.963 743.148 277.297 743.284 277.633 743.427C277.989 743.578 278.344 743.738 278.706 743.874C279.056 744.005 279.411 744.109 279.764 744.224C280.124 744.338 280.48 744.456 280.842 744.555C281.202 744.65 281.561 744.727 281.922 744.805C282.291 744.886 282.655 744.966 283.025 745.028C283.385 745.091 283.746 745.133 284.108 745.175C284.485 745.22 284.86 745.266 285.238 745.294C285.597 745.32 285.953 745.331 286.313 745.344C286.544 745.352 286.772 745.375 287.002 745.375C287.157 745.375 287.311 745.356 287.466 745.353C287.817 745.345 288.167 745.327 288.519 745.306C288.906 745.283 289.294 745.25 289.681 745.206C290.031 745.166 290.377 745.119 290.724 745.064C291.11 745.002 291.492 744.933 291.872 744.853C292.219 744.781 292.564 744.703 292.906 744.616C293.28 744.52 293.649 744.414 294.017 744.3C294.364 744.192 294.71 744.081 295.052 743.959C295.407 743.831 295.756 743.691 296.105 743.545C296.452 743.403 296.797 743.255 297.139 743.095C297.472 742.939 297.799 742.767 298.124 742.594C298.469 742.411 298.813 742.228 299.149 742.028C299.46 741.842 299.764 741.638 300.069 741.439C300.402 741.22 300.735 741.002 301.061 740.764C301.366 740.541 301.661 740.295 301.955 740.055C302.257 739.809 302.561 739.569 302.853 739.308C302.917 739.252 302.989 739.2 303.053 739.141C304.771 737.569 345.522 700.116 394.902 641.545H480.255L517.244 752.434H56.7534V752.43Z" fill="black"/>
<path id="borderTop" d="M149.955 92.4078C189.891 63.0766 237.283 47.5703 287 47.5703C414.795 47.5703 518.767 151.541 518.767 279.337C518.767 349.059 487.692 430.525 426.402 521.483C419.061 532.377 421.942 547.156 432.836 554.498C436.912 557.245 441.531 558.561 446.106 558.561C453.752 558.561 461.259 554.881 465.853 548.064C532.53 449.112 566.339 358.702 566.339 279.337C566.339 125.312 441.028 0 287 0C227.08 0 169.952 18.6953 121.792 54.0687C111.205 61.8437 108.927 76.7312 116.702 87.3187C124.484 97.9062 139.37 100.183 149.955 92.4078Z" fill="black"/>
<g id="wheat" clip-path="url(#clip1_322_2)">
<path id="Vector" d="M339.035 271.292C345.621 277.864 349.64 287.009 349.518 297.083C349.396 307.14 345.156 316.223 338.412 322.697C336.927 324.136 334.555 324.118 333.105 322.658C326.519 316.085 322.499 306.94 322.621 296.884C322.743 286.809 327.001 277.744 333.727 271.27C335.212 269.813 337.585 269.831 339.035 271.292Z" fill="#FBFBFB"/>
<path id="Vector_2" d="M302.931 316.304C312.946 316.378 321.972 320.575 328.387 327.289C329.813 328.767 329.784 331.14 328.323 332.596C321.728 339.214 312.62 343.277 302.605 343.202C292.573 343.128 283.565 338.931 277.132 332.217C275.706 330.721 275.735 328.366 277.196 326.91C283.808 320.292 292.917 316.23 302.931 316.304Z" fill="#FBFBFB"/>
<path id="Vector_3" d="M313.543 245.291C320.13 251.837 324.15 260.944 324.028 270.978C323.907 280.993 319.668 290.04 312.923 296.487C311.439 297.919 309.066 297.902 307.616 296.447C301.03 289.901 297.01 280.794 297.131 270.778C297.253 260.745 301.51 251.717 308.236 245.269C309.721 243.819 312.094 243.836 313.543 245.291Z" fill="#FBFBFB"/>
<path id="Vector_4" d="M251.491 300.693C258.088 294.076 267.198 290.013 277.216 290.087C287.233 290.162 296.262 294.359 302.679 301.073C304.106 302.551 304.077 304.923 302.615 306.38C296.018 312.997 286.908 317.06 276.89 316.986C266.855 316.911 257.844 312.714 251.409 306C250 304.522 250.029 302.168 251.491 300.693Z" fill="#FBFBFB"/>
<path id="Vector_5" d="M282.529 219.042C284.014 217.603 286.387 217.621 287.836 219.081C294.423 225.653 298.442 234.798 298.32 244.872C298.198 254.928 293.958 264.011 287.214 270.485C285.729 271.923 283.357 271.906 281.907 270.445C275.32 263.873 271.301 254.728 271.423 244.672C271.545 234.58 275.785 225.515 282.529 219.042Z" fill="#FBFBFB"/>
<path id="Vector_6" d="M251.733 264.091C261.748 264.166 270.774 268.363 277.189 275.077C278.615 276.554 278.586 278.927 277.125 280.384C270.53 287.001 261.422 291.064 251.407 290.99C241.375 290.915 232.366 286.718 225.933 280.004C224.508 278.508 224.536 276.153 225.998 274.697C232.592 268.098 241.7 264.017 251.733 264.091Z" fill="#FBFBFB"/>
<path id="Vector_7" d="M256.953 192.826C258.426 191.387 260.779 191.405 262.217 192.865C268.749 199.437 272.735 208.581 272.613 218.655C272.491 228.711 268.285 237.795 261.594 244.269C260.122 245.707 257.768 245.69 256.331 244.23C249.799 237.658 245.813 228.513 245.935 218.457C246.057 208.384 250.281 199.3 256.953 192.826Z" fill="#FBFBFB"/>
<path id="Vector_8" d="M226.026 237.875C236.041 237.949 245.067 242.146 251.482 248.86C252.908 250.338 252.879 252.711 251.418 254.167C244.823 260.785 235.715 264.847 225.7 264.773C215.668 264.699 206.659 260.502 200.226 253.788C198.801 252.292 198.829 249.937 200.291 248.48C206.885 241.881 215.993 237.818 226.026 237.875Z" fill="#FBFBFB"/>
<path id="Vector_9" d="M229.931 202.703C236.951 209.862 240.328 219.218 240.124 228.548C240.081 230.609 238.398 232.261 236.336 232.263C227.023 232.285 217.718 228.725 210.698 221.566C203.678 214.407 200.301 205.033 200.504 195.721C200.548 193.66 202.231 192.009 204.293 192.006C213.605 191.985 222.911 195.544 229.931 202.703Z" fill="#FBFBFB"/>
<path id="Vector_10" d="M368.856 365.945C366.714 368.046 363.277 368.02 361.186 365.888L336.58 340.794C334.489 338.662 334.53 335.225 336.672 333.124L338.998 330.844C341.14 328.743 344.576 328.769 346.667 330.901L371.274 355.977C373.364 358.109 373.323 361.546 371.181 363.646L368.856 365.945Z" fill="#FBFBFB"/>
</g>
<path id="cross" d="M178.274 389L400.274 167" stroke="white" stroke-width="30" stroke-linecap="round" stroke-linejoin="round"/>
</g>
<defs>
<clipPath id="clip0_322_2">
<rect width="574" height="800" fill="white"/>
</clipPath>
<clipPath id="clip1_322_2">
<rect width="279.484" height="175.363" fill="white" transform="translate(250.602 119.602) rotate(45)"/>
</clipPath>
</defs>
</svg>
